<svg version="1.0" xmlns="http://www.w3.org/2000/svg"
 width="20.000000pt" height="20.000000pt" viewBox="0 0 20.000000 20.000000"
 preserveAspectRatio="xMidYMid meet">

<g transform="translate(0.000000,20.000000) scale(0.100000,-0.100000)"
fill="#FFA31D" stroke="none">
<path d="M101 130 c-44 -21 -68 -27 -76 -20 -16 13 -24 3 -17 -22 4 -17 11
-19 43 -15 36 5 39 3 39 -19 0 -36 15 -29 35 15 11 25 28 44 46 51 32 14 37
25 13 34 -9 3 -16 6 -17 6 -1 -1 -31 -14 -66 -30z"/>
<path d="M40 141 c0 -13 25 -20 39 -11 10 5 8 9 -4 14 -23 8 -35 8 -35 -3z"/>
</g>
</svg>
